<svg xmlns="http://www.w3.org/2000/svg" xmlns:xlink="http://www.w3.org/1999/xlink" width="1001" zoomAndPan="magnify" viewBox="0 0 750.75 123.750003" height="165" preserveAspectRatio="xMidYMid meet" version="1.0"><defs><g/><clipPath id="3dd38c93e7"><path d="M 169 0 L 579 0 L 579 123.5 L 169 123.5 Z M 169 0 " clip-rule="nonzero"/></clipPath><clipPath id="f4ee3db48d"><path d="M 0.730469 2 L 57 2 L 57 122 L 0.730469 122 Z M 0.730469 2 " clip-rule="nonzero"/></clipPath><clipPath id="365da7c64f"><rect x="0" width="410" y="0" height="124"/></clipPath></defs><path fill="#4193fe" d="M 15.859375 5.125 C 16.257812 5.125 16.65625 5.121094 17.054688 5.121094 C 18.128906 5.113281 19.203125 5.113281 20.277344 5.117188 C 21.179688 5.117188 22.078125 5.117188 22.980469 5.113281 C 25.105469 5.109375 27.230469 5.109375 29.355469 5.113281 C 31.542969 5.117188 33.730469 5.113281 35.914062 5.105469 C 37.796875 5.097656 39.679688 5.097656 41.5625 5.097656 C 42.6875 5.097656 43.808594 5.097656 44.929688 5.09375 C 45.984375 5.089844 47.042969 5.089844 48.097656 5.09375 C 48.667969 5.097656 49.234375 5.09375 49.800781 5.089844 C 53.488281 5.117188 56.671875 6.222656 59.320312 8.847656 C 61.085938 10.773438 62.683594 12.835938 64.296875 14.890625 C 66.511719 17.667969 68.523438 19.941406 72.167969 20.523438 C 72.863281 20.550781 73.558594 20.5625 74.253906 20.566406 C 74.566406 20.566406 74.566406 20.566406 74.882812 20.566406 C 75.574219 20.570312 76.265625 20.570312 76.957031 20.570312 C 77.453125 20.570312 77.949219 20.574219 78.449219 20.574219 C 79.515625 20.578125 80.585938 20.582031 81.65625 20.582031 C 83.347656 20.585938 85.039062 20.589844 86.730469 20.597656 C 91.542969 20.617188 96.351562 20.632812 101.164062 20.640625 C 103.820312 20.648438 106.476562 20.65625 109.136719 20.667969 C 110.539062 20.675781 111.945312 20.679688 113.351562 20.679688 C 114.675781 20.679688 115.996094 20.683594 117.320312 20.691406 C 117.804688 20.695312 118.289062 20.695312 118.773438 20.695312 C 122.175781 20.6875 124.941406 20.875 127.679688 23.144531 C 129.996094 25.46875 130.707031 28.226562 130.707031 31.417969 C 130.703125 31.707031 130.699219 31.996094 130.699219 32.296875 C 130.695312 32.75 130.695312 32.75 130.695312 33.214844 C 130.691406 34.175781 130.683594 35.136719 130.675781 36.097656 C 130.675781 36.753906 130.671875 37.40625 130.667969 38.0625 C 130.664062 39.660156 130.652344 41.257812 130.640625 42.855469 C 130.816406 42.851562 130.992188 42.847656 131.171875 42.847656 C 133 42.8125 134.832031 42.792969 136.664062 42.773438 C 137.34375 42.769531 138.027344 42.757812 138.710938 42.746094 C 139.691406 42.726562 140.675781 42.71875 141.660156 42.710938 C 142.113281 42.699219 142.113281 42.699219 142.578125 42.6875 C 144.804688 42.6875 146.21875 43.210938 147.835938 44.75 C 149.160156 46.210938 149.515625 47.609375 149.496094 49.550781 C 149.410156 50.6875 149.089844 51.746094 148.761719 52.835938 C 148.652344 53.222656 148.652344 53.222656 148.539062 53.621094 C 148.285156 54.488281 148.03125 55.355469 147.773438 56.226562 C 147.589844 56.859375 147.40625 57.492188 147.222656 58.125 C 146.816406 59.523438 146.410156 60.917969 146 62.316406 C 145.359375 64.503906 144.722656 66.691406 144.085938 68.878906 C 142.925781 72.871094 141.761719 76.863281 140.59375 80.855469 C 139.613281 84.199219 138.640625 87.546875 137.667969 90.894531 C 137.25 92.339844 136.828125 93.785156 136.410156 95.230469 C 136.074219 96.382812 135.742188 97.53125 135.410156 98.679688 C 133.039062 106.867188 133.039062 106.867188 131.988281 110.058594 C 131.890625 110.363281 131.890625 110.363281 131.789062 110.675781 C 130.773438 113.675781 128.984375 115.832031 126.175781 117.289062 C 124.773438 117.96875 123.582031 118.117188 122.019531 118.117188 C 121.636719 118.121094 121.25 118.121094 120.855469 118.121094 C 120.425781 118.121094 119.996094 118.121094 119.566406 118.121094 C 119.113281 118.121094 118.660156 118.125 118.203125 118.125 C 116.953125 118.128906 115.703125 118.128906 114.453125 118.128906 C 113.105469 118.132812 111.753906 118.132812 110.40625 118.136719 C 107.148438 118.140625 103.894531 118.144531 100.636719 118.148438 C 99.101562 118.148438 97.566406 118.152344 96.035156 118.152344 C 90.933594 118.15625 85.835938 118.160156 80.738281 118.164062 C 79.414062 118.164062 78.089844 118.164062 76.765625 118.164062 C 76.4375 118.164062 76.109375 118.164062 75.769531 118.164062 C 70.441406 118.167969 65.117188 118.175781 59.789062 118.183594 C 54.316406 118.195312 48.847656 118.199219 43.378906 118.203125 C 40.308594 118.203125 37.234375 118.203125 34.164062 118.210938 C 31.550781 118.21875 28.933594 118.222656 26.320312 118.21875 C 24.984375 118.214844 23.652344 118.21875 22.316406 118.222656 C 21.09375 118.226562 19.871094 118.226562 18.648438 118.222656 C 18.207031 118.222656 17.765625 118.222656 17.324219 118.226562 C 13.539062 118.253906 10.664062 117.6875 7.882812 114.992188 C 5.175781 111.960938 4.789062 109 4.800781 105.070312 C 4.800781 104.675781 4.796875 104.28125 4.796875 103.886719 C 4.792969 102.804688 4.792969 101.722656 4.796875 100.640625 C 4.796875 99.472656 4.792969 98.304688 4.792969 97.136719 C 4.789062 94.851562 4.789062 92.566406 4.789062 90.28125 C 4.789062 88.421875 4.789062 86.5625 4.785156 84.703125 C 4.785156 84.441406 4.785156 84.175781 4.785156 83.902344 C 4.785156 83.363281 4.785156 82.828125 4.785156 82.289062 C 4.78125 77.246094 4.78125 72.207031 4.785156 67.164062 C 4.785156 62.554688 4.78125 57.945312 4.777344 53.335938 C 4.769531 48.601562 4.769531 43.867188 4.769531 39.128906 C 4.769531 36.472656 4.769531 33.816406 4.765625 31.15625 C 4.761719 28.894531 4.761719 26.632812 4.765625 24.371094 C 4.765625 23.214844 4.765625 22.0625 4.765625 20.910156 C 4.761719 19.851562 4.761719 18.792969 4.765625 17.734375 C 4.765625 17.175781 4.761719 16.613281 4.761719 16.054688 C 4.78125 12.882812 5.277344 10.238281 7.519531 7.890625 C 10.164062 5.519531 12.382812 5.113281 15.859375 5.125 Z M 15.859375 5.125 " fill-opacity="1" fill-rule="nonzero"/><path fill="#366cfb" d="M 15.859375 5.125 C 16.257812 5.125 16.65625 5.121094 17.054688 5.121094 C 18.128906 5.113281 19.203125 5.113281 20.277344 5.117188 C 21.179688 5.117188 22.078125 5.117188 22.980469 5.113281 C 25.105469 5.109375 27.230469 5.109375 29.355469 5.113281 C 31.542969 5.117188 33.730469 5.113281 35.914062 5.105469 C 37.796875 5.097656 39.679688 5.097656 41.5625 5.097656 C 42.6875 5.097656 43.808594 5.097656 44.929688 5.09375 C 45.984375 5.089844 47.042969 5.089844 48.097656 5.09375 C 48.667969 5.097656 49.234375 5.09375 49.800781 5.089844 C 53.488281 5.117188 56.671875 6.222656 59.320312 8.847656 C 61.085938 10.773438 62.683594 12.835938 64.296875 14.890625 C 66.511719 17.667969 68.523438 19.941406 72.167969 20.523438 C 72.863281 20.550781 73.558594 20.5625 74.253906 20.566406 C 74.566406 20.566406 74.566406 20.566406 74.882812 20.566406 C 75.574219 20.570312 76.265625 20.570312 76.957031 20.570312 C 77.453125 20.570312 77.949219 20.574219 78.449219 20.574219 C 79.515625 20.578125 80.585938 20.582031 81.65625 20.582031 C 83.347656 20.585938 85.039062 20.589844 86.730469 20.597656 C 91.542969 20.617188 96.351562 20.632812 101.164062 20.640625 C 103.820312 20.648438 106.476562 20.65625 109.136719 20.667969 C 110.539062 20.675781 111.945312 20.679688 113.351562 20.679688 C 114.675781 20.679688 115.996094 20.683594 117.320312 20.691406 C 117.804688 20.695312 118.289062 20.695312 118.773438 20.695312 C 122.175781 20.6875 124.941406 20.875 127.679688 23.144531 C 129.996094 25.46875 130.707031 28.226562 130.707031 31.417969 C 130.703125 31.707031 130.699219 31.996094 130.699219 32.296875 C 130.695312 32.75 130.695312 32.75 130.695312 33.214844 C 130.691406 34.175781 130.683594 35.136719 130.675781 36.097656 C 130.675781 36.753906 130.671875 37.40625 130.667969 38.0625 C 130.664062 39.660156 130.652344 41.257812 130.640625 42.855469 C 130.390625 42.855469 130.390625 42.855469 130.136719 42.855469 C 120.296875 42.859375 110.453125 42.871094 100.613281 42.894531 C 99.429688 42.894531 98.246094 42.898438 97.0625 42.902344 C 96.710938 42.902344 96.710938 42.902344 96.351562 42.902344 C 92.542969 42.910156 88.734375 42.914062 84.925781 42.914062 C 81.015625 42.914062 77.105469 42.921875 73.195312 42.933594 C 70.78125 42.9375 68.371094 42.941406 65.960938 42.9375 C 64.304688 42.9375 62.648438 42.941406 60.996094 42.949219 C 60.042969 42.953125 59.085938 42.957031 58.132812 42.953125 C 57.097656 42.949219 56.058594 42.953125 55.023438 42.960938 C 54.578125 42.957031 54.578125 42.957031 54.121094 42.953125 C 51.15625 42.992188 48.378906 44.007812 46.230469 46.09375 C 44.226562 48.378906 43.46875 50.988281 42.691406 53.863281 C 42.3125 55.25 41.902344 56.628906 41.496094 58.007812 C 41.320312 58.613281 41.144531 59.21875 40.964844 59.824219 C 40.445312 61.613281 39.925781 63.402344 39.402344 65.1875 C 39.230469 65.773438 39.058594 66.363281 38.890625 66.949219 C 35.804688 77.527344 32.71875 88.105469 29.632812 98.683594 C 29.546875 98.976562 29.464844 99.269531 29.375 99.566406 C 29.203125 100.152344 29.035156 100.738281 28.863281 101.320312 C 28.417969 102.835938 27.984375 104.351562 27.566406 105.871094 C 25.25 114.21875 25.25 114.21875 21.339844 116.679688 C 18.664062 118.140625 15.535156 118.515625 12.558594 117.90625 C 9.488281 116.957031 7.40625 114.820312 5.804688 112.101562 C 4.792969 109.78125 4.792969 107.5625 4.800781 105.070312 C 4.800781 104.675781 4.796875 104.28125 4.796875 103.886719 C 4.792969 102.804688 4.792969 101.722656 4.796875 100.640625 C 4.796875 99.472656 4.792969 98.304688 4.792969 97.136719 C 4.789062 94.851562 4.789062 92.566406 4.789062 90.28125 C 4.789062 88.421875 4.789062 86.5625 4.785156 84.703125 C 4.785156 84.441406 4.785156 84.175781 4.785156 83.902344 C 4.785156 83.363281 4.785156 82.828125 4.785156 82.289062 C 4.78125 77.246094 4.78125 72.207031 4.785156 67.164062 C 4.785156 62.554688 4.78125 57.945312 4.777344 53.335938 C 4.769531 48.601562 4.769531 43.867188 4.769531 39.128906 C 4.769531 36.472656 4.769531 33.816406 4.765625 31.15625 C 4.761719 28.894531 4.761719 26.632812 4.765625 24.371094 C 4.765625 23.214844 4.765625 22.0625 4.765625 20.910156 C 4.761719 19.851562 4.761719 18.792969 4.765625 17.734375 C 4.765625 17.175781 4.761719 16.613281 4.761719 16.054688 C 4.78125 12.882812 5.277344 10.238281 7.519531 7.890625 C 10.164062 5.519531 12.382812 5.113281 15.859375 5.125 Z M 15.859375 5.125 " fill-opacity="1" fill-rule="nonzero"/><g clip-path="url(#3dd38c93e7)"><g transform="matrix(1, 0, 0, 1, 169, 0.00000000000000159)"><g clip-path="url(#365da7c64f)"><g clip-path="url(#f4ee3db48d)"><g fill="#000000" fill-opacity="1"><g transform="translate(0.929483, 121.450088)"><g><path d="M 18.65625 -100.75 L 18.65625 -67.171875 L 37.3125 -76.5 L 37.3125 -100.75 Z M 0 -100.75 C 0 -108.21875 1.242188 -113.191406 3.734375 -115.671875 C 6.222656 -118.160156 11.195312 -119.40625 18.65625 -119.40625 L 37.3125 -119.40625 C 44.78125 -119.40625 49.753906 -118.160156 52.234375 -115.671875 C 54.722656 -113.191406 55.96875 -108.21875 55.96875 -100.75 L 55.96875 0 L 37.3125 0 L 37.3125 -54.109375 L 18.65625 -44.78125 L 18.65625 0 L 0 0 Z M 0 -100.75 "/></g></g></g></g><g fill="#000000" fill-opacity="1"><g transform="translate(68.09268, 121.450088)"><g><path d="M 52.234375 0 L 33.578125 0 L 33.578125 -7.46875 C 31.097656 -2.488281 27.367188 0 22.390625 0 L 18.65625 0 C 11.195312 0 6.222656 -1.242188 3.734375 -3.734375 C 1.242188 -6.222656 0 -11.195312 0 -18.65625 L 0 -89.5625 L 18.65625 -89.5625 L 18.65625 -18.65625 L 33.578125 -18.65625 L 33.578125 -89.5625 L 52.234375 -89.5625 Z M 52.234375 0 "/></g></g></g><g fill="#000000" fill-opacity="1"><g transform="translate(131.524589, 121.450088)"><g><path d="M 0 -89.5625 L 18.65625 -89.5625 L 18.65625 -82.09375 C 21.144531 -87.070312 24.878906 -89.5625 29.859375 -89.5625 L 33.578125 -89.5625 C 41.046875 -89.5625 46.019531 -88.316406 48.5 -85.828125 C 50.988281 -83.335938 52.234375 -78.363281 52.234375 -70.90625 L 52.234375 -67.171875 L 33.578125 -57.84375 L 33.578125 -70.90625 L 18.65625 -70.90625 L 18.65625 0 L 0 0 Z M 0 -89.5625 "/></g></g></g><g fill="#000000" fill-opacity="1"><g transform="translate(194.956498, 121.450088)"><g><path d="M 33.578125 -57.84375 L 33.578125 -70.96875 L 18.65625 -70.96875 L 18.65625 -57.84375 L 0 -48.515625 L 0 -70.90625 C 0 -78.363281 1.242188 -83.335938 3.734375 -85.828125 C 6.222656 -88.316406 11.195312 -89.5625 18.65625 -89.5625 L 33.578125 -89.5625 C 41.046875 -89.5625 46.019531 -88.316406 48.5 -85.828125 C 50.988281 -83.335938 52.234375 -78.382812 52.234375 -70.96875 L 52.234375 0 L 33.578125 0 L 33.578125 -7.46875 C 31.097656 -2.539062 27.414062 -0.078125 22.53125 -0.078125 L 18.65625 -0.078125 C 11.238281 -0.078125 6.289062 -1.296875 3.8125 -3.734375 C 1.269531 -6.171875 0 -11.144531 0 -18.65625 L 0 -33.578125 C 0 -38.554688 2.488281 -42.289062 7.46875 -44.78125 Z M 18.65625 -27.984375 L 18.65625 -18.734375 L 33.578125 -18.734375 L 33.578125 -35.453125 Z M 18.65625 -27.984375 "/></g></g></g><g fill="#000000" fill-opacity="1"><g transform="translate(258.388406, 121.450088)"><g/></g></g><g fill="#000000" fill-opacity="1"><g transform="translate(311.521959, 121.450088)"><g><path d="M 18.65625 -100.75 L 18.65625 -67.171875 L 37.3125 -76.5 L 37.3125 -100.75 Z M 0 -100.75 C 0 -108.21875 1.242188 -113.191406 3.734375 -115.671875 C 6.222656 -118.160156 11.195312 -119.40625 18.65625 -119.40625 L 37.3125 -119.40625 C 44.78125 -119.40625 49.753906 -118.160156 52.234375 -115.671875 C 54.722656 -113.191406 55.96875 -108.21875 55.96875 -100.75 L 55.96875 0 L 37.3125 0 L 37.3125 -54.109375 L 18.65625 -44.78125 L 18.65625 0 L 0 0 Z M 0 -100.75 "/></g></g></g><g fill="#000000" fill-opacity="1"><g transform="translate(378.685157, 121.450088)"><g><path d="M 0 -119.40625 L 18.65625 -119.40625 L 18.65625 0 L 0 0 Z M 0 -119.40625 "/></g></g></g></g></g></g></svg>